<?xml version="1.0"?>
<svg xmlns="http://www.w3.org/2000/svg" xmlns:xlink="http://www.w3.org/1999/xlink" xmlns:svgjs="http://svgjs.com/svgjs" version="1.1" width="512" height="512" x="0" y="0" viewBox="0 0 512 512" style="enable-background:new 0 0 512 512" xml:space="preserve"><g>
<circle xmlns="http://www.w3.org/2000/svg" style="" cx="256" cy="256" r="256" fill="#0e0c05" data-original="#ffd83b"/>
<g xmlns="http://www.w3.org/2000/svg">
	<circle style="" cx="166.352" cy="114.544" r="48" fill="#f3c432" data-original="#f3c432"/>
	<circle style="" cx="380.144" cy="143.904" r="35.648" fill="#f3c432" data-original="#f3c432"/>
	<circle style="" cx="250.032" cy="256" r="31.376" fill="#f3c432" data-original="#f3c432"/>
	<circle style="" cx="285.392" cy="346.784" r="13.184" fill="#f3c432" data-original="#f3c432"/>
	<circle style="" cx="118.32" cy="245.84" r="13.184" fill="#f3c432" data-original="#f3c432"/>
	<path style="" d="M392.384,39.616C417.344,79.136,432,125.808,432,176c0,141.376-114.608,256-256,256   c-50.192,0-96.864-14.656-136.384-39.616C84.96,464.176,164.816,512,256,512c141.392,0,256-114.624,256-256   C512,164.816,464.176,84.96,392.384,39.616z" fill="#f3c432" data-original="#f3c432"/>
</g>
<circle xmlns="http://www.w3.org/2000/svg" style="" cx="263.744" cy="460.944" r="17.664" fill="#e8af2a" data-original="#e8af2a"/>
<circle xmlns="http://www.w3.org/2000/svg" style="" cx="157.648" cy="346.784" r="26.144" fill="#f3c432" data-original="#f3c432"/>
<circle xmlns="http://www.w3.org/2000/svg" style="" cx="420.32" cy="333.616" r="26.144" fill="#e8af2a" data-original="#e8af2a"/>
<g xmlns="http://www.w3.org/2000/svg">
</g>
<g xmlns="http://www.w3.org/2000/svg">
</g>
<g xmlns="http://www.w3.org/2000/svg">
</g>
<g xmlns="http://www.w3.org/2000/svg">
</g>
<g xmlns="http://www.w3.org/2000/svg">
</g>
<g xmlns="http://www.w3.org/2000/svg">
</g>
<g xmlns="http://www.w3.org/2000/svg">
</g>
<g xmlns="http://www.w3.org/2000/svg">
</g>
<g xmlns="http://www.w3.org/2000/svg">
</g>
<g xmlns="http://www.w3.org/2000/svg">
</g>
<g xmlns="http://www.w3.org/2000/svg">
</g>
<g xmlns="http://www.w3.org/2000/svg">
</g>
<g xmlns="http://www.w3.org/2000/svg">
</g>
<g xmlns="http://www.w3.org/2000/svg">
</g>
<g xmlns="http://www.w3.org/2000/svg">
</g>
</g></svg>
